# xmcd
#
# Track frame offsets:
#       150
#       12007
#       30153
#       43856
#       59048
#       72668
#       87308
#       101247
#       122834
#       140118
#       152995
#       172179
#       189724
#       205124
#
# Disc length: 2949 seconds
#
# Revision: 1
# Processed by: cddbd v1.5.2PL0 Copyright (c) Steve Scherf et al.
# Submitted via: MusiCat 1.1
#
DISCID=d40b830e
DTITLE=Various Artist - Rolling Stone - Recommends
DYEAR=1900
DGENRE=
TTITLE0=Rock Boys - The Grates
TTITLE1=Gone - The Butterfly Effect
TTITLE2=Recapturing The Vibe - Hilltop Hoods
TTITLE3=Scorch - Macromantics
TTITLE4=TV - True Live
TTITLE5=Shakedown - Behaind Crimson Eyes
TTITLE6=Head In The Sand - Ground Components
TTITLE7=happiness Is A Chemical - Darren Hanlon
TTITLE8=Fire Fire Fire - Dappled Cities Fly
TTITLE9=Learnalilgivinanlovin - Gotye
TTITLE10=It's Hard To Speak Without A Tongue - Parkway drive
TTITLE11=Sugarcoat - Subaudible Hum
TTITLE12=Play A Part - Expatriate
TTITLE13=Hold Me Close - Bertie Blackman
EXTD=\n\n
EXTT0=
EXTT1=
EXTT2=
EXTT3=
EXTT4=
EXTT5=
EXTT6=
EXTT7=
EXTT8=
EXTT9=
EXTT10=
EXTT11=
EXTT12=
EXTT13=
PLAYORDER=
